<?xml version="1.0" encoding="utf-8" standalone="no"?>
<!DOCTYPE svg PUBLIC "-//W3C//DTD SVG 1.1//EN"
  "http://www.w3.org/Graphics/SVG/1.1/DTD/svg11.dtd">
<svg xmlns:xlink="http://www.w3.org/1999/xlink" width="415.781815pt" height="267.588827pt" viewBox="0 0 415.781815 267.588827" xmlns="http://www.w3.org/2000/svg" version="1.1">
 <metadata>
  <rdf:RDF xmlns:dc="http://purl.org/dc/elements/1.1/" xmlns:cc="http://creativecommons.org/ns#" xmlns:rdf="http://www.w3.org/1999/02/22-rdf-syntax-ns#">
   <cc:Work>
    <dc:type rdf:resource="http://purl.org/dc/dcmitype/StillImage"/>
    <dc:date>2026-03-04T13:37:09.858560</dc:date>
    <dc:format>image/svg+xml</dc:format>
    <dc:creator>
     <cc:Agent>
      <dc:title>Matplotlib v3.10.8, https://matplotlib.org/</dc:title>
     </cc:Agent>
    </dc:creator>
   </cc:Work>
  </rdf:RDF>
 </metadata>
 <defs>
  <style type="text/css">*{stroke-linejoin: round; stroke-linecap: butt}</style>
 </defs>
 <g id="figure_1">
  <g id="patch_1">
   <path d="M 0 267.588827 
L 415.781815 267.588827 
L 415.781815 0 
L 0 0 
z
" style="fill: #ffffff"/>
  </g>
  <g id="axes_1">
   <g id="patch_2">
    <path d="M 71.248438 230.032577 
L 406.048438 230.032577 
L 406.048438 22.318125 
L 71.248438 22.318125 
z
" style="fill: #ffffff"/>
   </g>
   <g id="matplotlib.axis_1">
    <g id="xtick_1">
     <g id="line2d_1">
      <path d="M 111.423825 230.032577 
L 111.423825 22.318125 
" clip-path="url(#p29ad74a359)" style="fill: none; stroke: #b0b0b0; stroke-width: 0.8; stroke-linecap: square"/>
     </g>
     <g id="line2d_2">
      <defs>
       <path id="m447ae34b3c" d="M 0 0 
L 0 3.5 
" style="stroke: #000000; stroke-width: 0.8"/>
      </defs>
      <g>
       <use xlink:href="#m447ae34b3c" x="111.423825" y="230.032577" style="stroke: #000000; stroke-width: 0.8"/>
      </g>
     </g>
     <g id="text_1">
      <!-- 0.015 -->
      <g transform="translate(97.109762 244.631015) scale(0.1 -0.1)">
       <defs>
        <path id="DejaVuSans-30" d="M 2034 4250 
Q 1547 4250 1301 3770 
Q 1056 3291 1056 2328 
Q 1056 1369 1301 889 
Q 1547 409 2034 409 
Q 2525 409 2770 889 
Q 3016 1369 3016 2328 
Q 3016 3291 2770 3770 
Q 2525 4250 2034 4250 
z
M 2034 4750 
Q 2819 4750 3233 4129 
Q 3647 3509 3647 2328 
Q 3647 1150 3233 529 
Q 2819 -91 2034 -91 
Q 1250 -91 836 529 
Q 422 1150 422 2328 
Q 422 3509 836 4129 
Q 1250 4750 2034 4750 
z
" transform="scale(0.015625)"/>
        <path id="DejaVuSans-2e" d="M 684 794 
L 1344 794 
L 1344 0 
L 684 0 
L 684 794 
z
" transform="scale(0.015625)"/>
        <path id="DejaVuSans-31" d="M 794 531 
L 1825 531 
L 1825 4091 
L 703 3866 
L 703 4441 
L 1819 4666 
L 2450 4666 
L 2450 531 
L 3481 531 
L 3481 0 
L 794 0 
L 794 531 
z
" transform="scale(0.015625)"/>
        <path id="DejaVuSans-35" d="M 691 4666 
L 3169 4666 
L 3169 4134 
L 1269 4134 
L 1269 2991 
Q 1406 3038 1543 3061 
Q 1681 3084 1819 3084 
Q 2600 3084 3056 2656 
Q 3513 2228 3513 1497 
Q 3513 744 3044 326 
Q 2575 -91 1722 -91 
Q 1428 -91 1123 -41 
Q 819 9 494 109 
L 494 744 
Q 775 591 1075 516 
Q 1375 441 1709 441 
Q 2250 441 2565 725 
Q 2881 1009 2881 1497 
Q 2881 1984 2565 2268 
Q 2250 2553 1709 2553 
Q 1456 2553 1204 2497 
Q 953 2441 691 2322 
L 691 4666 
z
" transform="scale(0.015625)"/>
       </defs>
       <use xlink:href="#DejaVuSans-30"/>
       <use xlink:href="#DejaVuSans-2e" transform="translate(63.623047 0)"/>
       <use xlink:href="#DejaVuSans-30" transform="translate(95.410156 0)"/>
       <use xlink:href="#DejaVuSans-31" transform="translate(159.033203 0)"/>
       <use xlink:href="#DejaVuSans-35" transform="translate(222.65625 0)"/>
      </g>
     </g>
    </g>
    <g id="xtick_2">
     <g id="line2d_3">
      <path d="M 158.564479 230.032577 
L 158.564479 22.318125 
" clip-path="url(#p29ad74a359)" style="fill: none; stroke: #b0b0b0; stroke-width: 0.8; stroke-linecap: square"/>
     </g>
     <g id="line2d_4">
      <g>
       <use xlink:href="#m447ae34b3c" x="158.564479" y="230.032577" style="stroke: #000000; stroke-width: 0.8"/>
      </g>
     </g>
     <g id="text_2">
      <!-- 0.020 -->
      <g transform="translate(144.250417 244.631015) scale(0.1 -0.1)">
       <defs>
        <path id="DejaVuSans-32" d="M 1228 531 
L 3431 531 
L 3431 0 
L 469 0 
L 469 531 
Q 828 903 1448 1529 
Q 2069 2156 2228 2338 
Q 2531 2678 2651 2914 
Q 2772 3150 2772 3378 
Q 2772 3750 2511 3984 
Q 2250 4219 1831 4219 
Q 1534 4219 1204 4116 
Q 875 4013 500 3803 
L 500 4441 
Q 881 4594 1212 4672 
Q 1544 4750 1819 4750 
Q 2544 4750 2975 4387 
Q 3406 4025 3406 3419 
Q 3406 3131 3298 2873 
Q 3191 2616 2906 2266 
Q 2828 2175 2409 1742 
Q 1991 1309 1228 531 
z
" transform="scale(0.015625)"/>
       </defs>
       <use xlink:href="#DejaVuSans-30"/>
       <use xlink:href="#DejaVuSans-2e" transform="translate(63.623047 0)"/>
       <use xlink:href="#DejaVuSans-30" transform="translate(95.410156 0)"/>
       <use xlink:href="#DejaVuSans-32" transform="translate(159.033203 0)"/>
       <use xlink:href="#DejaVuSans-30" transform="translate(222.65625 0)"/>
      </g>
     </g>
    </g>
    <g id="xtick_3">
     <g id="line2d_5">
      <path d="M 205.705134 230.032577 
L 205.705134 22.318125 
" clip-path="url(#p29ad74a359)" style="fill: none; stroke: #b0b0b0; stroke-width: 0.8; stroke-linecap: square"/>
     </g>
     <g id="line2d_6">
      <g>
       <use xlink:href="#m447ae34b3c" x="205.705134" y="230.032577" style="stroke: #000000; stroke-width: 0.8"/>
      </g>
     </g>
     <g id="text_3">
      <!-- 0.025 -->
      <g transform="translate(191.391071 244.631015) scale(0.1 -0.1)">
       <use xlink:href="#DejaVuSans-30"/>
       <use xlink:href="#DejaVuSans-2e" transform="translate(63.623047 0)"/>
       <use xlink:href="#DejaVuSans-30" transform="translate(95.410156 0)"/>
       <use xlink:href="#DejaVuSans-32" transform="translate(159.033203 0)"/>
       <use xlink:href="#DejaVuSans-35" transform="translate(222.65625 0)"/>
      </g>
     </g>
    </g>
    <g id="xtick_4">
     <g id="line2d_7">
      <path d="M 252.845788 230.032577 
L 252.845788 22.318125 
" clip-path="url(#p29ad74a359)" style="fill: none; stroke: #b0b0b0; stroke-width: 0.8; stroke-linecap: square"/>
     </g>
     <g id="line2d_8">
      <g>
       <use xlink:href="#m447ae34b3c" x="252.845788" y="230.032577" style="stroke: #000000; stroke-width: 0.8"/>
      </g>
     </g>
     <g id="text_4">
      <!-- 0.030 -->
      <g transform="translate(238.531726 244.631015) scale(0.1 -0.1)">
       <defs>
        <path id="DejaVuSans-33" d="M 2597 2516 
Q 3050 2419 3304 2112 
Q 3559 1806 3559 1356 
Q 3559 666 3084 287 
Q 2609 -91 1734 -91 
Q 1441 -91 1130 -33 
Q 819 25 488 141 
L 488 750 
Q 750 597 1062 519 
Q 1375 441 1716 441 
Q 2309 441 2620 675 
Q 2931 909 2931 1356 
Q 2931 1769 2642 2001 
Q 2353 2234 1838 2234 
L 1294 2234 
L 1294 2753 
L 1863 2753 
Q 2328 2753 2575 2939 
Q 2822 3125 2822 3475 
Q 2822 3834 2567 4026 
Q 2313 4219 1838 4219 
Q 1578 4219 1281 4162 
Q 984 4106 628 3988 
L 628 4550 
Q 988 4650 1302 4700 
Q 1616 4750 1894 4750 
Q 2613 4750 3031 4423 
Q 3450 4097 3450 3541 
Q 3450 3153 3228 2886 
Q 3006 2619 2597 2516 
z
" transform="scale(0.015625)"/>
       </defs>
       <use xlink:href="#DejaVuSans-30"/>
       <use xlink:href="#DejaVuSans-2e" transform="translate(63.623047 0)"/>
       <use xlink:href="#DejaVuSans-30" transform="translate(95.410156 0)"/>
       <use xlink:href="#DejaVuSans-33" transform="translate(159.033203 0)"/>
       <use xlink:href="#DejaVuSans-30" transform="translate(222.65625 0)"/>
      </g>
     </g>
    </g>
    <g id="xtick_5">
     <g id="line2d_9">
      <path d="M 299.986443 230.032577 
L 299.986443 22.318125 
" clip-path="url(#p29ad74a359)" style="fill: none; stroke: #b0b0b0; stroke-width: 0.8; stroke-linecap: square"/>
     </g>
     <g id="line2d_10">
      <g>
       <use xlink:href="#m447ae34b3c" x="299.986443" y="230.032577" style="stroke: #000000; stroke-width: 0.8"/>
      </g>
     </g>
     <g id="text_5">
      <!-- 0.035 -->
      <g transform="translate(285.672381 244.631015) scale(0.1 -0.1)">
       <use xlink:href="#DejaVuSans-30"/>
       <use xlink:href="#DejaVuSans-2e" transform="translate(63.623047 0)"/>
       <use xlink:href="#DejaVuSans-30" transform="translate(95.410156 0)"/>
       <use xlink:href="#DejaVuSans-33" transform="translate(159.033203 0)"/>
       <use xlink:href="#DejaVuSans-35" transform="translate(222.65625 0)"/>
      </g>
     </g>
    </g>
    <g id="xtick_6">
     <g id="line2d_11">
      <path d="M 347.127098 230.032577 
L 347.127098 22.318125 
" clip-path="url(#p29ad74a359)" style="fill: none; stroke: #b0b0b0; stroke-width: 0.8; stroke-linecap: square"/>
     </g>
     <g id="line2d_12">
      <g>
       <use xlink:href="#m447ae34b3c" x="347.127098" y="230.032577" style="stroke: #000000; stroke-width: 0.8"/>
      </g>
     </g>
     <g id="text_6">
      <!-- 0.040 -->
      <g transform="translate(332.813035 244.631015) scale(0.1 -0.1)">
       <defs>
        <path id="DejaVuSans-34" d="M 2419 4116 
L 825 1625 
L 2419 1625 
L 2419 4116 
z
M 2253 4666 
L 3047 4666 
L 3047 1625 
L 3713 1625 
L 3713 1100 
L 3047 1100 
L 3047 0 
L 2419 0 
L 2419 1100 
L 313 1100 
L 313 1709 
L 2253 4666 
z
" transform="scale(0.015625)"/>
       </defs>
       <use xlink:href="#DejaVuSans-30"/>
       <use xlink:href="#DejaVuSans-2e" transform="translate(63.623047 0)"/>
       <use xlink:href="#DejaVuSans-30" transform="translate(95.410156 0)"/>
       <use xlink:href="#DejaVuSans-34" transform="translate(159.033203 0)"/>
       <use xlink:href="#DejaVuSans-30" transform="translate(222.65625 0)"/>
      </g>
     </g>
    </g>
    <g id="xtick_7">
     <g id="line2d_13">
      <path d="M 394.267752 230.032577 
L 394.267752 22.318125 
" clip-path="url(#p29ad74a359)" style="fill: none; stroke: #b0b0b0; stroke-width: 0.8; stroke-linecap: square"/>
     </g>
     <g id="line2d_14">
      <g>
       <use xlink:href="#m447ae34b3c" x="394.267752" y="230.032577" style="stroke: #000000; stroke-width: 0.8"/>
      </g>
     </g>
     <g id="text_7">
      <!-- 0.045 -->
      <g transform="translate(379.95369 244.631015) scale(0.1 -0.1)">
       <use xlink:href="#DejaVuSans-30"/>
       <use xlink:href="#DejaVuSans-2e" transform="translate(63.623047 0)"/>
       <use xlink:href="#DejaVuSans-30" transform="translate(95.410156 0)"/>
       <use xlink:href="#DejaVuSans-34" transform="translate(159.033203 0)"/>
       <use xlink:href="#DejaVuSans-35" transform="translate(222.65625 0)"/>
      </g>
     </g>
    </g>
    <g id="text_8">
     <!-- Zreal (ohm) -->
     <g transform="translate(209.161719 258.30914) scale(0.1 -0.1)">
      <defs>
       <path id="DejaVuSans-5a" d="M 359 4666 
L 4025 4666 
L 4025 4184 
L 1075 531 
L 4097 531 
L 4097 0 
L 288 0 
L 288 481 
L 3238 4134 
L 359 4134 
L 359 4666 
z
" transform="scale(0.015625)"/>
       <path id="DejaVuSans-72" d="M 2631 2963 
Q 2534 3019 2420 3045 
Q 2306 3072 2169 3072 
Q 1681 3072 1420 2755 
Q 1159 2438 1159 1844 
L 1159 0 
L 581 0 
L 581 3500 
L 1159 3500 
L 1159 2956 
Q 1341 3275 1631 3429 
Q 1922 3584 2338 3584 
Q 2397 3584 2469 3576 
Q 2541 3569 2628 3553 
L 2631 2963 
z
" transform="scale(0.015625)"/>
       <path id="DejaVuSans-65" d="M 3597 1894 
L 3597 1613 
L 953 1613 
Q 991 1019 1311 708 
Q 1631 397 2203 397 
Q 2534 397 2845 478 
Q 3156 559 3463 722 
L 3463 178 
Q 3153 47 2828 -22 
Q 2503 -91 2169 -91 
Q 1331 -91 842 396 
Q 353 884 353 1716 
Q 353 2575 817 3079 
Q 1281 3584 2069 3584 
Q 2775 3584 3186 3129 
Q 3597 2675 3597 1894 
z
M 3022 2063 
Q 3016 2534 2758 2815 
Q 2500 3097 2075 3097 
Q 1594 3097 1305 2825 
Q 1016 2553 972 2059 
L 3022 2063 
z
" transform="scale(0.015625)"/>
       <path id="DejaVuSans-61" d="M 2194 1759 
Q 1497 1759 1228 1600 
Q 959 1441 959 1056 
Q 959 750 1161 570 
Q 1363 391 1709 391 
Q 2188 391 2477 730 
Q 2766 1069 2766 1631 
L 2766 1759 
L 2194 1759 
z
M 3341 1997 
L 3341 0 
L 2766 0 
L 2766 531 
Q 2569 213 2275 61 
Q 1981 -91 1556 -91 
Q 1019 -91 701 211 
Q 384 513 384 1019 
Q 384 1609 779 1909 
Q 1175 2209 1959 2209 
L 2766 2209 
L 2766 2266 
Q 2766 2663 2505 2880 
Q 2244 3097 1772 3097 
Q 1472 3097 1187 3025 
Q 903 2953 641 2809 
L 641 3341 
Q 956 3463 1253 3523 
Q 1550 3584 1831 3584 
Q 2591 3584 2966 3190 
Q 3341 2797 3341 1997 
z
" transform="scale(0.015625)"/>
       <path id="DejaVuSans-6c" d="M 603 4863 
L 1178 4863 
L 1178 0 
L 603 0 
L 603 4863 
z
" transform="scale(0.015625)"/>
       <path id="DejaVuSans-20" transform="scale(0.015625)"/>
       <path id="DejaVuSans-28" d="M 1984 4856 
Q 1566 4138 1362 3434 
Q 1159 2731 1159 2009 
Q 1159 1288 1364 580 
Q 1569 -128 1984 -844 
L 1484 -844 
Q 1016 -109 783 600 
Q 550 1309 550 2009 
Q 550 2706 781 3412 
Q 1013 4119 1484 4856 
L 1984 4856 
z
" transform="scale(0.015625)"/>
       <path id="DejaVuSans-6f" d="M 1959 3097 
Q 1497 3097 1228 2736 
Q 959 2375 959 1747 
Q 959 1119 1226 758 
Q 1494 397 1959 397 
Q 2419 397 2687 759 
Q 2956 1122 2956 1747 
Q 2956 2369 2687 2733 
Q 2419 3097 1959 3097 
z
M 1959 3584 
Q 2709 3584 3137 3096 
Q 3566 2609 3566 1747 
Q 3566 888 3137 398 
Q 2709 -91 1959 -91 
Q 1206 -91 779 398 
Q 353 888 353 1747 
Q 353 2609 779 3096 
Q 1206 3584 1959 3584 
z
" transform="scale(0.015625)"/>
       <path id="DejaVuSans-68" d="M 3513 2113 
L 3513 0 
L 2938 0 
L 2938 2094 
Q 2938 2591 2744 2837 
Q 2550 3084 2163 3084 
Q 1697 3084 1428 2787 
Q 1159 2491 1159 1978 
L 1159 0 
L 581 0 
L 581 4863 
L 1159 4863 
L 1159 2956 
Q 1366 3272 1645 3428 
Q 1925 3584 2291 3584 
Q 2894 3584 3203 3211 
Q 3513 2838 3513 2113 
z
" transform="scale(0.015625)"/>
       <path id="DejaVuSans-6d" d="M 3328 2828 
Q 3544 3216 3844 3400 
Q 4144 3584 4550 3584 
Q 5097 3584 5394 3201 
Q 5691 2819 5691 2113 
L 5691 0 
L 5113 0 
L 5113 2094 
Q 5113 2597 4934 2840 
Q 4756 3084 4391 3084 
Q 3944 3084 3684 2787 
Q 3425 2491 3425 1978 
L 3425 0 
L 2847 0 
L 2847 2094 
Q 2847 2600 2669 2842 
Q 2491 3084 2119 3084 
Q 1678 3084 1418 2786 
Q 1159 2488 1159 1978 
L 1159 0 
L 581 0 
L 581 3500 
L 1159 3500 
L 1159 2956 
Q 1356 3278 1631 3431 
Q 1906 3584 2284 3584 
Q 2666 3584 2933 3390 
Q 3200 3197 3328 2828 
z
" transform="scale(0.015625)"/>
       <path id="DejaVuSans-29" d="M 513 4856 
L 1013 4856 
Q 1481 4119 1714 3412 
Q 1947 2706 1947 2009 
Q 1947 1309 1714 600 
Q 1481 -109 1013 -844 
L 513 -844 
Q 928 -128 1133 580 
Q 1338 1288 1338 2009 
Q 1338 2731 1133 3434 
Q 928 4138 513 4856 
z
" transform="scale(0.015625)"/>
      </defs>
      <use xlink:href="#DejaVuSans-5a"/>
      <use xlink:href="#DejaVuSans-72" transform="translate(68.505859 0)"/>
      <use xlink:href="#DejaVuSans-65" transform="translate(107.369141 0)"/>
      <use xlink:href="#DejaVuSans-61" transform="translate(168.892578 0)"/>
      <use xlink:href="#DejaVuSans-6c" transform="translate(230.171875 0)"/>
      <use xlink:href="#DejaVuSans-20" transform="translate(257.955078 0)"/>
      <use xlink:href="#DejaVuSans-28" transform="translate(289.742188 0)"/>
      <use xlink:href="#DejaVuSans-6f" transform="translate(328.755859 0)"/>
      <use xlink:href="#DejaVuSans-68" transform="translate(389.9375 0)"/>
      <use xlink:href="#DejaVuSans-6d" transform="translate(453.316406 0)"/>
      <use xlink:href="#DejaVuSans-29" transform="translate(550.728516 0)"/>
     </g>
    </g>
   </g>
   <g id="matplotlib.axis_2">
    <g id="ytick_1">
     <g id="line2d_15">
      <path d="M 71.248438 209.984364 
L 406.048438 209.984364 
" clip-path="url(#p29ad74a359)" style="fill: none; stroke: #b0b0b0; stroke-width: 0.8; stroke-linecap: square"/>
     </g>
     <g id="line2d_16">
      <defs>
       <path id="m2b16aa21c7" d="M 0 0 
L -3.5 0 
" style="stroke: #000000; stroke-width: 0.8"/>
      </defs>
      <g>
       <use xlink:href="#m2b16aa21c7" x="71.248438" y="209.984364" style="stroke: #000000; stroke-width: 0.8"/>
      </g>
     </g>
     <g id="text_9">
      <!-- −0.0050 -->
      <g transform="translate(20.878125 213.783583) scale(0.1 -0.1)">
       <defs>
        <path id="DejaVuSans-2212" d="M 678 2272 
L 4684 2272 
L 4684 1741 
L 678 1741 
L 678 2272 
z
" transform="scale(0.015625)"/>
       </defs>
       <use xlink:href="#DejaVuSans-2212"/>
       <use xlink:href="#DejaVuSans-30" transform="translate(83.789062 0)"/>
       <use xlink:href="#DejaVuSans-2e" transform="translate(147.412109 0)"/>
       <use xlink:href="#DejaVuSans-30" transform="translate(179.199219 0)"/>
       <use xlink:href="#DejaVuSans-30" transform="translate(242.822266 0)"/>
       <use xlink:href="#DejaVuSans-35" transform="translate(306.445312 0)"/>
       <use xlink:href="#DejaVuSans-30" transform="translate(370.068359 0)"/>
      </g>
     </g>
    </g>
    <g id="ytick_2">
     <g id="line2d_17">
      <path d="M 71.248438 186.414037 
L 406.048438 186.414037 
" clip-path="url(#p29ad74a359)" style="fill: none; stroke: #b0b0b0; stroke-width: 0.8; stroke-linecap: square"/>
     </g>
     <g id="line2d_18">
      <g>
       <use xlink:href="#m2b16aa21c7" x="71.248438" y="186.414037" style="stroke: #000000; stroke-width: 0.8"/>
      </g>
     </g>
     <g id="text_10">
      <!-- −0.0025 -->
      <g transform="translate(20.878125 190.213255) scale(0.1 -0.1)">
       <use xlink:href="#DejaVuSans-2212"/>
       <use xlink:href="#DejaVuSans-30" transform="translate(83.789062 0)"/>
       <use xlink:href="#DejaVuSans-2e" transform="translate(147.412109 0)"/>
       <use xlink:href="#DejaVuSans-30" transform="translate(179.199219 0)"/>
       <use xlink:href="#DejaVuSans-30" transform="translate(242.822266 0)"/>
       <use xlink:href="#DejaVuSans-32" transform="translate(306.445312 0)"/>
       <use xlink:href="#DejaVuSans-35" transform="translate(370.068359 0)"/>
      </g>
     </g>
    </g>
    <g id="ytick_3">
     <g id="line2d_19">
      <path d="M 71.248438 162.843709 
L 406.048438 162.843709 
" clip-path="url(#p29ad74a359)" style="fill: none; stroke: #b0b0b0; stroke-width: 0.8; stroke-linecap: square"/>
     </g>
     <g id="line2d_20">
      <g>
       <use xlink:href="#m2b16aa21c7" x="71.248438" y="162.843709" style="stroke: #000000; stroke-width: 0.8"/>
      </g>
     </g>
     <g id="text_11">
      <!-- 0.0000 -->
      <g transform="translate(29.257813 166.642928) scale(0.1 -0.1)">
       <use xlink:href="#DejaVuSans-30"/>
       <use xlink:href="#DejaVuSans-2e" transform="translate(63.623047 0)"/>
       <use xlink:href="#DejaVuSans-30" transform="translate(95.410156 0)"/>
       <use xlink:href="#DejaVuSans-30" transform="translate(159.033203 0)"/>
       <use xlink:href="#DejaVuSans-30" transform="translate(222.65625 0)"/>
       <use xlink:href="#DejaVuSans-30" transform="translate(286.279297 0)"/>
      </g>
     </g>
    </g>
    <g id="ytick_4">
     <g id="line2d_21">
      <path d="M 71.248438 139.273382 
L 406.048438 139.273382 
" clip-path="url(#p29ad74a359)" style="fill: none; stroke: #b0b0b0; stroke-width: 0.8; stroke-linecap: square"/>
     </g>
     <g id="line2d_22">
      <g>
       <use xlink:href="#m2b16aa21c7" x="71.248438" y="139.273382" style="stroke: #000000; stroke-width: 0.8"/>
      </g>
     </g>
     <g id="text_12">
      <!-- 0.0025 -->
      <g transform="translate(29.257813 143.072601) scale(0.1 -0.1)">
       <use xlink:href="#DejaVuSans-30"/>
       <use xlink:href="#DejaVuSans-2e" transform="translate(63.623047 0)"/>
       <use xlink:href="#DejaVuSans-30" transform="translate(95.410156 0)"/>
       <use xlink:href="#DejaVuSans-30" transform="translate(159.033203 0)"/>
       <use xlink:href="#DejaVuSans-32" transform="translate(222.65625 0)"/>
       <use xlink:href="#DejaVuSans-35" transform="translate(286.279297 0)"/>
      </g>
     </g>
    </g>
    <g id="ytick_5">
     <g id="line2d_23">
      <path d="M 71.248438 115.703055 
L 406.048438 115.703055 
" clip-path="url(#p29ad74a359)" style="fill: none; stroke: #b0b0b0; stroke-width: 0.8; stroke-linecap: square"/>
     </g>
     <g id="line2d_24">
      <g>
       <use xlink:href="#m2b16aa21c7" x="71.248438" y="115.703055" style="stroke: #000000; stroke-width: 0.8"/>
      </g>
     </g>
     <g id="text_13">
      <!-- 0.0050 -->
      <g transform="translate(29.257813 119.502273) scale(0.1 -0.1)">
       <use xlink:href="#DejaVuSans-30"/>
       <use xlink:href="#DejaVuSans-2e" transform="translate(63.623047 0)"/>
       <use xlink:href="#DejaVuSans-30" transform="translate(95.410156 0)"/>
       <use xlink:href="#DejaVuSans-30" transform="translate(159.033203 0)"/>
       <use xlink:href="#DejaVuSans-35" transform="translate(222.65625 0)"/>
       <use xlink:href="#DejaVuSans-30" transform="translate(286.279297 0)"/>
      </g>
     </g>
    </g>
    <g id="ytick_6">
     <g id="line2d_25">
      <path d="M 71.248438 92.132727 
L 406.048438 92.132727 
" clip-path="url(#p29ad74a359)" style="fill: none; stroke: #b0b0b0; stroke-width: 0.8; stroke-linecap: square"/>
     </g>
     <g id="line2d_26">
      <g>
       <use xlink:href="#m2b16aa21c7" x="71.248438" y="92.132727" style="stroke: #000000; stroke-width: 0.8"/>
      </g>
     </g>
     <g id="text_14">
      <!-- 0.0075 -->
      <g transform="translate(29.257813 95.931946) scale(0.1 -0.1)">
       <defs>
        <path id="DejaVuSans-37" d="M 525 4666 
L 3525 4666 
L 3525 4397 
L 1831 0 
L 1172 0 
L 2766 4134 
L 525 4134 
L 525 4666 
z
" transform="scale(0.015625)"/>
       </defs>
       <use xlink:href="#DejaVuSans-30"/>
       <use xlink:href="#DejaVuSans-2e" transform="translate(63.623047 0)"/>
       <use xlink:href="#DejaVuSans-30" transform="translate(95.410156 0)"/>
       <use xlink:href="#DejaVuSans-30" transform="translate(159.033203 0)"/>
       <use xlink:href="#DejaVuSans-37" transform="translate(222.65625 0)"/>
       <use xlink:href="#DejaVuSans-35" transform="translate(286.279297 0)"/>
      </g>
     </g>
    </g>
    <g id="ytick_7">
     <g id="line2d_27">
      <path d="M 71.248438 68.5624 
L 406.048438 68.5624 
" clip-path="url(#p29ad74a359)" style="fill: none; stroke: #b0b0b0; stroke-width: 0.8; stroke-linecap: square"/>
     </g>
     <g id="line2d_28">
      <g>
       <use xlink:href="#m2b16aa21c7" x="71.248438" y="68.5624" style="stroke: #000000; stroke-width: 0.8"/>
      </g>
     </g>
     <g id="text_15">
      <!-- 0.0100 -->
      <g transform="translate(29.257813 72.361619) scale(0.1 -0.1)">
       <use xlink:href="#DejaVuSans-30"/>
       <use xlink:href="#DejaVuSans-2e" transform="translate(63.623047 0)"/>
       <use xlink:href="#DejaVuSans-30" transform="translate(95.410156 0)"/>
       <use xlink:href="#DejaVuSans-31" transform="translate(159.033203 0)"/>
       <use xlink:href="#DejaVuSans-30" transform="translate(222.65625 0)"/>
       <use xlink:href="#DejaVuSans-30" transform="translate(286.279297 0)"/>
      </g>
     </g>
    </g>
    <g id="ytick_8">
     <g id="line2d_29">
      <path d="M 71.248438 44.992073 
L 406.048438 44.992073 
" clip-path="url(#p29ad74a359)" style="fill: none; stroke: #b0b0b0; stroke-width: 0.8; stroke-linecap: square"/>
     </g>
     <g id="line2d_30">
      <g>
       <use xlink:href="#m2b16aa21c7" x="71.248438" y="44.992073" style="stroke: #000000; stroke-width: 0.8"/>
      </g>
     </g>
     <g id="text_16">
      <!-- 0.0125 -->
      <g transform="translate(29.257813 48.791291) scale(0.1 -0.1)">
       <use xlink:href="#DejaVuSans-30"/>
       <use xlink:href="#DejaVuSans-2e" transform="translate(63.623047 0)"/>
       <use xlink:href="#DejaVuSans-30" transform="translate(95.410156 0)"/>
       <use xlink:href="#DejaVuSans-31" transform="translate(159.033203 0)"/>
       <use xlink:href="#DejaVuSans-32" transform="translate(222.65625 0)"/>
       <use xlink:href="#DejaVuSans-35" transform="translate(286.279297 0)"/>
      </g>
     </g>
    </g>
    <g id="text_17">
     <!-- -Zimag (ohm) -->
     <g transform="translate(14.798438 160.490976) rotate(-90) scale(0.1 -0.1)">
      <defs>
       <path id="DejaVuSans-2d" d="M 313 2009 
L 1997 2009 
L 1997 1497 
L 313 1497 
L 313 2009 
z
" transform="scale(0.015625)"/>
       <path id="DejaVuSans-69" d="M 603 3500 
L 1178 3500 
L 1178 0 
L 603 0 
L 603 3500 
z
M 603 4863 
L 1178 4863 
L 1178 4134 
L 603 4134 
L 603 4863 
z
" transform="scale(0.015625)"/>
       <path id="DejaVuSans-67" d="M 2906 1791 
Q 2906 2416 2648 2759 
Q 2391 3103 1925 3103 
Q 1463 3103 1205 2759 
Q 947 2416 947 1791 
Q 947 1169 1205 825 
Q 1463 481 1925 481 
Q 2391 481 2648 825 
Q 2906 1169 2906 1791 
z
M 3481 434 
Q 3481 -459 3084 -895 
Q 2688 -1331 1869 -1331 
Q 1566 -1331 1297 -1286 
Q 1028 -1241 775 -1147 
L 775 -588 
Q 1028 -725 1275 -790 
Q 1522 -856 1778 -856 
Q 2344 -856 2625 -561 
Q 2906 -266 2906 331 
L 2906 616 
Q 2728 306 2450 153 
Q 2172 0 1784 0 
Q 1141 0 747 490 
Q 353 981 353 1791 
Q 353 2603 747 3093 
Q 1141 3584 1784 3584 
Q 2172 3584 2450 3431 
Q 2728 3278 2906 2969 
L 2906 3500 
L 3481 3500 
L 3481 434 
z
" transform="scale(0.015625)"/>
      </defs>
      <use xlink:href="#DejaVuSans-2d"/>
      <use xlink:href="#DejaVuSans-5a" transform="translate(36.083984 0)"/>
      <use xlink:href="#DejaVuSans-69" transform="translate(104.589844 0)"/>
      <use xlink:href="#DejaVuSans-6d" transform="translate(132.373047 0)"/>
      <use xlink:href="#DejaVuSans-61" transform="translate(229.785156 0)"/>
      <use xlink:href="#DejaVuSans-67" transform="translate(291.064453 0)"/>
      <use xlink:href="#DejaVuSans-20" transform="translate(354.541016 0)"/>
      <use xlink:href="#DejaVuSans-28" transform="translate(386.328125 0)"/>
      <use xlink:href="#DejaVuSans-6f" transform="translate(425.341797 0)"/>
      <use xlink:href="#DejaVuSans-68" transform="translate(486.523438 0)"/>
      <use xlink:href="#DejaVuSans-6d" transform="translate(549.902344 0)"/>
      <use xlink:href="#DejaVuSans-29" transform="translate(647.314453 0)"/>
     </g>
    </g>
   </g>
   <g id="line2d_31">
    <path d="M 93.415152 220.591011 
L 91.935878 209.749603 
L 90.665909 200.859819 
L 89.6241 193.656727 
L 88.77934 187.722661 
L 88.130684 182.820033 
L 87.626279 178.866818 
L 87.242554 175.625426 
L 86.954996 172.949723 
L 86.732493 170.753911 
L 86.614641 168.947481 
L 86.542044 167.435209 
L 86.511874 166.095472 
L 86.466619 164.966924 
L 86.555244 163.964714 
L 86.661782 163.0514 
L 86.758891 162.201439 
L 86.935197 161.246584 
L 87.150159 160.399938 
L 87.373606 159.510865 
L 87.704533 158.471885 
L 88.034517 157.407449 
L 88.500267 156.111081 
L 88.92359 154.633693 
L 89.489278 152.816892 
L 90.146419 150.650308 
L 90.903498 148.126397 
L 91.929278 144.880291 
L 93.161535 141.116582 
L 94.780345 136.478884 
L 96.807393 131.09825 
L 99.729171 124.149717 
L 103.322232 116.5563 
L 108.401166 107.180024 
L 116.596097 94.590641 
L 125.141755 83.703978 
L 137.465265 71.041056 
L 153.495916 58.016093 
L 174.847804 45.561532 
L 199.29589 36.532211 
L 225.555121 31.759691 
L 252.640255 31.891685 
L 279.845127 37.054529 
L 304.361096 46.705164 
L 325.354715 59.509509 
L 340.714083 72.316682 
L 353.098876 85.734798 
L 362.157424 97.717009 
L 369.015446 108.940256 
L 373.907703 117.929979 
L 377.845834 126.437924 
L 379.861568 132.842454 
L 382.072465 138.160862 
L 383.752558 143.35482 
L 385.134722 146.61601 
L 386.704506 149.548159 
L 388.697612 151.923105 
L 387.973532 154.039721 
L 388.171523 155.661359 
L 388.087612 156.81442 
L 390.830256 157.612039 
" clip-path="url(#p29ad74a359)" style="fill: none; stroke: #000000; stroke-linecap: square"/>
    <defs>
     <path id="mf2ecb1583f" d="M 0 1.380945 
C 0.366231 1.380945 0.717511 1.23544 0.976476 0.976476 
C 1.23544 0.717511 1.380945 0.366231 1.380945 0 
C 1.380945 -0.366231 1.23544 -0.717511 0.976476 -0.976476 
C 0.717511 -1.23544 0.366231 -1.380945 0 -1.380945 
C -0.366231 -1.380945 -0.717511 -1.23544 -0.976476 -0.976476 
C -1.23544 -0.717511 -1.380945 -0.366231 -1.380945 0 
C -1.380945 0.366231 -1.23544 0.717511 -0.976476 0.976476 
C -0.717511 1.23544 -0.366231 1.380945 0 1.380945 
z
" style="stroke: #000000; stroke-width: 0.6"/>
    </defs>
    <g clip-path="url(#p29ad74a359)">
     <use xlink:href="#mf2ecb1583f" x="93.415152" y="220.591011" style="fill-opacity: 0; stroke: #000000; stroke-width: 0.6"/>
     <use xlink:href="#mf2ecb1583f" x="91.935878" y="209.749603" style="fill-opacity: 0; stroke: #000000; stroke-width: 0.6"/>
     <use xlink:href="#mf2ecb1583f" x="90.665909" y="200.859819" style="fill-opacity: 0; stroke: #000000; stroke-width: 0.6"/>
     <use xlink:href="#mf2ecb1583f" x="89.6241" y="193.656727" style="fill-opacity: 0; stroke: #000000; stroke-width: 0.6"/>
     <use xlink:href="#mf2ecb1583f" x="88.77934" y="187.722661" style="fill-opacity: 0; stroke: #000000; stroke-width: 0.6"/>
     <use xlink:href="#mf2ecb1583f" x="88.130684" y="182.820033" style="fill-opacity: 0; stroke: #000000; stroke-width: 0.6"/>
     <use xlink:href="#mf2ecb1583f" x="87.626279" y="178.866818" style="fill-opacity: 0; stroke: #000000; stroke-width: 0.6"/>
     <use xlink:href="#mf2ecb1583f" x="87.242554" y="175.625426" style="fill-opacity: 0; stroke: #000000; stroke-width: 0.6"/>
     <use xlink:href="#mf2ecb1583f" x="86.954996" y="172.949723" style="fill-opacity: 0; stroke: #000000; stroke-width: 0.6"/>
     <use xlink:href="#mf2ecb1583f" x="86.732493" y="170.753911" style="fill-opacity: 0; stroke: #000000; stroke-width: 0.6"/>
     <use xlink:href="#mf2ecb1583f" x="86.614641" y="168.947481" style="fill-opacity: 0; stroke: #000000; stroke-width: 0.6"/>
     <use xlink:href="#mf2ecb1583f" x="86.542044" y="167.435209" style="fill-opacity: 0; stroke: #000000; stroke-width: 0.6"/>
     <use xlink:href="#mf2ecb1583f" x="86.511874" y="166.095472" style="fill-opacity: 0; stroke: #000000; stroke-width: 0.6"/>
     <use xlink:href="#mf2ecb1583f" x="86.466619" y="164.966924" style="fill-opacity: 0; stroke: #000000; stroke-width: 0.6"/>
     <use xlink:href="#mf2ecb1583f" x="86.555244" y="163.964714" style="fill-opacity: 0; stroke: #000000; stroke-width: 0.6"/>
     <use xlink:href="#mf2ecb1583f" x="86.661782" y="163.0514" style="fill-opacity: 0; stroke: #000000; stroke-width: 0.6"/>
     <use xlink:href="#mf2ecb1583f" x="86.758891" y="162.201439" style="fill-opacity: 0; stroke: #000000; stroke-width: 0.6"/>
     <use xlink:href="#mf2ecb1583f" x="86.935197" y="161.246584" style="fill-opacity: 0; stroke: #000000; stroke-width: 0.6"/>
     <use xlink:href="#mf2ecb1583f" x="87.150159" y="160.399938" style="fill-opacity: 0; stroke: #000000; stroke-width: 0.6"/>
     <use xlink:href="#mf2ecb1583f" x="87.373606" y="159.510865" style="fill-opacity: 0; stroke: #000000; stroke-width: 0.6"/>
     <use xlink:href="#mf2ecb1583f" x="87.704533" y="158.471885" style="fill-opacity: 0; stroke: #000000; stroke-width: 0.6"/>
     <use xlink:href="#mf2ecb1583f" x="88.034517" y="157.407449" style="fill-opacity: 0; stroke: #000000; stroke-width: 0.6"/>
     <use xlink:href="#mf2ecb1583f" x="88.500267" y="156.111081" style="fill-opacity: 0; stroke: #000000; stroke-width: 0.6"/>
     <use xlink:href="#mf2ecb1583f" x="88.92359" y="154.633693" style="fill-opacity: 0; stroke: #000000; stroke-width: 0.6"/>
     <use xlink:href="#mf2ecb1583f" x="89.489278" y="152.816892" style="fill-opacity: 0; stroke: #000000; stroke-width: 0.6"/>
     <use xlink:href="#mf2ecb1583f" x="90.146419" y="150.650308" style="fill-opacity: 0; stroke: #000000; stroke-width: 0.6"/>
     <use xlink:href="#mf2ecb1583f" x="90.903498" y="148.126397" style="fill-opacity: 0; stroke: #000000; stroke-width: 0.6"/>
     <use xlink:href="#mf2ecb1583f" x="91.929278" y="144.880291" style="fill-opacity: 0; stroke: #000000; stroke-width: 0.6"/>
     <use xlink:href="#mf2ecb1583f" x="93.161535" y="141.116582" style="fill-opacity: 0; stroke: #000000; stroke-width: 0.6"/>
     <use xlink:href="#mf2ecb1583f" x="94.780345" y="136.478884" style="fill-opacity: 0; stroke: #000000; stroke-width: 0.6"/>
     <use xlink:href="#mf2ecb1583f" x="96.807393" y="131.09825" style="fill-opacity: 0; stroke: #000000; stroke-width: 0.6"/>
     <use xlink:href="#mf2ecb1583f" x="99.729171" y="124.149717" style="fill-opacity: 0; stroke: #000000; stroke-width: 0.6"/>
     <use xlink:href="#mf2ecb1583f" x="103.322232" y="116.5563" style="fill-opacity: 0; stroke: #000000; stroke-width: 0.6"/>
     <use xlink:href="#mf2ecb1583f" x="108.401166" y="107.180024" style="fill-opacity: 0; stroke: #000000; stroke-width: 0.6"/>
     <use xlink:href="#mf2ecb1583f" x="116.596097" y="94.590641" style="fill-opacity: 0; stroke: #000000; stroke-width: 0.6"/>
     <use xlink:href="#mf2ecb1583f" x="125.141755" y="83.703978" style="fill-opacity: 0; stroke: #000000; stroke-width: 0.6"/>
     <use xlink:href="#mf2ecb1583f" x="137.465265" y="71.041056" style="fill-opacity: 0; stroke: #000000; stroke-width: 0.6"/>
     <use xlink:href="#mf2ecb1583f" x="153.495916" y="58.016093" style="fill-opacity: 0; stroke: #000000; stroke-width: 0.6"/>
     <use xlink:href="#mf2ecb1583f" x="174.847804" y="45.561532" style="fill-opacity: 0; stroke: #000000; stroke-width: 0.6"/>
     <use xlink:href="#mf2ecb1583f" x="199.29589" y="36.532211" style="fill-opacity: 0; stroke: #000000; stroke-width: 0.6"/>
     <use xlink:href="#mf2ecb1583f" x="225.555121" y="31.759691" style="fill-opacity: 0; stroke: #000000; stroke-width: 0.6"/>
     <use xlink:href="#mf2ecb1583f" x="252.640255" y="31.891685" style="fill-opacity: 0; stroke: #000000; stroke-width: 0.6"/>
     <use xlink:href="#mf2ecb1583f" x="279.845127" y="37.054529" style="fill-opacity: 0; stroke: #000000; stroke-width: 0.6"/>
     <use xlink:href="#mf2ecb1583f" x="304.361096" y="46.705164" style="fill-opacity: 0; stroke: #000000; stroke-width: 0.6"/>
     <use xlink:href="#mf2ecb1583f" x="325.354715" y="59.509509" style="fill-opacity: 0; stroke: #000000; stroke-width: 0.6"/>
     <use xlink:href="#mf2ecb1583f" x="340.714083" y="72.316682" style="fill-opacity: 0; stroke: #000000; stroke-width: 0.6"/>
     <use xlink:href="#mf2ecb1583f" x="353.098876" y="85.734798" style="fill-opacity: 0; stroke: #000000; stroke-width: 0.6"/>
     <use xlink:href="#mf2ecb1583f" x="362.157424" y="97.717009" style="fill-opacity: 0; stroke: #000000; stroke-width: 0.6"/>
     <use xlink:href="#mf2ecb1583f" x="369.015446" y="108.940256" style="fill-opacity: 0; stroke: #000000; stroke-width: 0.6"/>
     <use xlink:href="#mf2ecb1583f" x="373.907703" y="117.929979" style="fill-opacity: 0; stroke: #000000; stroke-width: 0.6"/>
     <use xlink:href="#mf2ecb1583f" x="377.845834" y="126.437924" style="fill-opacity: 0; stroke: #000000; stroke-width: 0.6"/>
     <use xlink:href="#mf2ecb1583f" x="379.861568" y="132.842454" style="fill-opacity: 0; stroke: #000000; stroke-width: 0.6"/>
     <use xlink:href="#mf2ecb1583f" x="382.072465" y="138.160862" style="fill-opacity: 0; stroke: #000000; stroke-width: 0.6"/>
     <use xlink:href="#mf2ecb1583f" x="383.752558" y="143.35482" style="fill-opacity: 0; stroke: #000000; stroke-width: 0.6"/>
     <use xlink:href="#mf2ecb1583f" x="385.134722" y="146.61601" style="fill-opacity: 0; stroke: #000000; stroke-width: 0.6"/>
     <use xlink:href="#mf2ecb1583f" x="386.704506" y="149.548159" style="fill-opacity: 0; stroke: #000000; stroke-width: 0.6"/>
     <use xlink:href="#mf2ecb1583f" x="388.697612" y="151.923105" style="fill-opacity: 0; stroke: #000000; stroke-width: 0.6"/>
     <use xlink:href="#mf2ecb1583f" x="387.973532" y="154.039721" style="fill-opacity: 0; stroke: #000000; stroke-width: 0.6"/>
     <use xlink:href="#mf2ecb1583f" x="388.171523" y="155.661359" style="fill-opacity: 0; stroke: #000000; stroke-width: 0.6"/>
     <use xlink:href="#mf2ecb1583f" x="388.087612" y="156.81442" style="fill-opacity: 0; stroke: #000000; stroke-width: 0.6"/>
     <use xlink:href="#mf2ecb1583f" x="390.830256" y="157.612039" style="fill-opacity: 0; stroke: #000000; stroke-width: 0.6"/>
    </g>
   </g>
   <g id="patch_3">
    <path d="M 71.248438 230.032577 
L 71.248438 22.318125 
" style="fill: none; stroke: #000000; stroke-width: 0.8; stroke-linejoin: miter; stroke-linecap: square"/>
   </g>
   <g id="patch_4">
    <path d="M 406.048438 230.032577 
L 406.048438 22.318125 
" style="fill: none; stroke: #000000; stroke-width: 0.8; stroke-linejoin: miter; stroke-linecap: square"/>
   </g>
   <g id="patch_5">
    <path d="M 71.248438 230.032577 
L 406.048437 230.032577 
" style="fill: none; stroke: #000000; stroke-width: 0.8; stroke-linejoin: miter; stroke-linecap: square"/>
   </g>
   <g id="patch_6">
    <path d="M 71.248438 22.318125 
L 406.048437 22.318125 
" style="fill: none; stroke: #000000; stroke-width: 0.8; stroke-linejoin: miter; stroke-linecap: square"/>
   </g>
   <g id="text_18">
    <!-- Potentiostatic EIS - Nyquist -->
    <g transform="translate(157.515312 16.318125) scale(0.12 -0.12)">
     <defs>
      <path id="DejaVuSans-50" d="M 1259 4147 
L 1259 2394 
L 2053 2394 
Q 2494 2394 2734 2622 
Q 2975 2850 2975 3272 
Q 2975 3691 2734 3919 
Q 2494 4147 2053 4147 
L 1259 4147 
z
M 628 4666 
L 2053 4666 
Q 2838 4666 3239 4311 
Q 3641 3956 3641 3272 
Q 3641 2581 3239 2228 
Q 2838 1875 2053 1875 
L 1259 1875 
L 1259 0 
L 628 0 
L 628 4666 
z
" transform="scale(0.015625)"/>
      <path id="DejaVuSans-74" d="M 1172 4494 
L 1172 3500 
L 2356 3500 
L 2356 3053 
L 1172 3053 
L 1172 1153 
Q 1172 725 1289 603 
Q 1406 481 1766 481 
L 2356 481 
L 2356 0 
L 1766 0 
Q 1100 0 847 248 
Q 594 497 594 1153 
L 594 3053 
L 172 3053 
L 172 3500 
L 594 3500 
L 594 4494 
L 1172 4494 
z
" transform="scale(0.015625)"/>
      <path id="DejaVuSans-6e" d="M 3513 2113 
L 3513 0 
L 2938 0 
L 2938 2094 
Q 2938 2591 2744 2837 
Q 2550 3084 2163 3084 
Q 1697 3084 1428 2787 
Q 1159 2491 1159 1978 
L 1159 0 
L 581 0 
L 581 3500 
L 1159 3500 
L 1159 2956 
Q 1366 3272 1645 3428 
Q 1925 3584 2291 3584 
Q 2894 3584 3203 3211 
Q 3513 2838 3513 2113 
z
" transform="scale(0.015625)"/>
      <path id="DejaVuSans-73" d="M 2834 3397 
L 2834 2853 
Q 2591 2978 2328 3040 
Q 2066 3103 1784 3103 
Q 1356 3103 1142 2972 
Q 928 2841 928 2578 
Q 928 2378 1081 2264 
Q 1234 2150 1697 2047 
L 1894 2003 
Q 2506 1872 2764 1633 
Q 3022 1394 3022 966 
Q 3022 478 2636 193 
Q 2250 -91 1575 -91 
Q 1294 -91 989 -36 
Q 684 19 347 128 
L 347 722 
Q 666 556 975 473 
Q 1284 391 1588 391 
Q 1994 391 2212 530 
Q 2431 669 2431 922 
Q 2431 1156 2273 1281 
Q 2116 1406 1581 1522 
L 1381 1569 
Q 847 1681 609 1914 
Q 372 2147 372 2553 
Q 372 3047 722 3315 
Q 1072 3584 1716 3584 
Q 2034 3584 2315 3537 
Q 2597 3491 2834 3397 
z
" transform="scale(0.015625)"/>
      <path id="DejaVuSans-63" d="M 3122 3366 
L 3122 2828 
Q 2878 2963 2633 3030 
Q 2388 3097 2138 3097 
Q 1578 3097 1268 2742 
Q 959 2388 959 1747 
Q 959 1106 1268 751 
Q 1578 397 2138 397 
Q 2388 397 2633 464 
Q 2878 531 3122 666 
L 3122 134 
Q 2881 22 2623 -34 
Q 2366 -91 2075 -91 
Q 1284 -91 818 406 
Q 353 903 353 1747 
Q 353 2603 823 3093 
Q 1294 3584 2113 3584 
Q 2378 3584 2631 3529 
Q 2884 3475 3122 3366 
z
" transform="scale(0.015625)"/>
      <path id="DejaVuSans-45" d="M 628 4666 
L 3578 4666 
L 3578 4134 
L 1259 4134 
L 1259 2753 
L 3481 2753 
L 3481 2222 
L 1259 2222 
L 1259 531 
L 3634 531 
L 3634 0 
L 628 0 
L 628 4666 
z
" transform="scale(0.015625)"/>
      <path id="DejaVuSans-49" d="M 628 4666 
L 1259 4666 
L 1259 0 
L 628 0 
L 628 4666 
z
" transform="scale(0.015625)"/>
      <path id="DejaVuSans-53" d="M 3425 4513 
L 3425 3897 
Q 3066 4069 2747 4153 
Q 2428 4238 2131 4238 
Q 1616 4238 1336 4038 
Q 1056 3838 1056 3469 
Q 1056 3159 1242 3001 
Q 1428 2844 1947 2747 
L 2328 2669 
Q 3034 2534 3370 2195 
Q 3706 1856 3706 1288 
Q 3706 609 3251 259 
Q 2797 -91 1919 -91 
Q 1588 -91 1214 -16 
Q 841 59 441 206 
L 441 856 
Q 825 641 1194 531 
Q 1563 422 1919 422 
Q 2459 422 2753 634 
Q 3047 847 3047 1241 
Q 3047 1584 2836 1778 
Q 2625 1972 2144 2069 
L 1759 2144 
Q 1053 2284 737 2584 
Q 422 2884 422 3419 
Q 422 4038 858 4394 
Q 1294 4750 2059 4750 
Q 2388 4750 2728 4690 
Q 3069 4631 3425 4513 
z
" transform="scale(0.015625)"/>
      <path id="DejaVuSans-4e" d="M 628 4666 
L 1478 4666 
L 3547 763 
L 3547 4666 
L 4159 4666 
L 4159 0 
L 3309 0 
L 1241 3903 
L 1241 0 
L 628 0 
L 628 4666 
z
" transform="scale(0.015625)"/>
      <path id="DejaVuSans-79" d="M 2059 -325 
Q 1816 -950 1584 -1140 
Q 1353 -1331 966 -1331 
L 506 -1331 
L 506 -850 
L 844 -850 
Q 1081 -850 1212 -737 
Q 1344 -625 1503 -206 
L 1606 56 
L 191 3500 
L 800 3500 
L 1894 763 
L 2988 3500 
L 3597 3500 
L 2059 -325 
z
" transform="scale(0.015625)"/>
      <path id="DejaVuSans-71" d="M 947 1747 
Q 947 1113 1208 752 
Q 1469 391 1925 391 
Q 2381 391 2643 752 
Q 2906 1113 2906 1747 
Q 2906 2381 2643 2742 
Q 2381 3103 1925 3103 
Q 1469 3103 1208 2742 
Q 947 2381 947 1747 
z
M 2906 525 
Q 2725 213 2448 61 
Q 2172 -91 1784 -91 
Q 1150 -91 751 415 
Q 353 922 353 1747 
Q 353 2572 751 3078 
Q 1150 3584 1784 3584 
Q 2172 3584 2448 3432 
Q 2725 3281 2906 2969 
L 2906 3500 
L 3481 3500 
L 3481 -1331 
L 2906 -1331 
L 2906 525 
z
" transform="scale(0.015625)"/>
      <path id="DejaVuSans-75" d="M 544 1381 
L 544 3500 
L 1119 3500 
L 1119 1403 
Q 1119 906 1312 657 
Q 1506 409 1894 409 
Q 2359 409 2629 706 
Q 2900 1003 2900 1516 
L 2900 3500 
L 3475 3500 
L 3475 0 
L 2900 0 
L 2900 538 
Q 2691 219 2414 64 
Q 2138 -91 1772 -91 
Q 1169 -91 856 284 
Q 544 659 544 1381 
z
M 1991 3584 
L 1991 3584 
z
" transform="scale(0.015625)"/>
     </defs>
     <use xlink:href="#DejaVuSans-50"/>
     <use xlink:href="#DejaVuSans-6f" transform="translate(56.677734 0)"/>
     <use xlink:href="#DejaVuSans-74" transform="translate(117.859375 0)"/>
     <use xlink:href="#DejaVuSans-65" transform="translate(157.068359 0)"/>
     <use xlink:href="#DejaVuSans-6e" transform="translate(218.591797 0)"/>
     <use xlink:href="#DejaVuSans-74" transform="translate(281.970703 0)"/>
     <use xlink:href="#DejaVuSans-69" transform="translate(321.179688 0)"/>
     <use xlink:href="#DejaVuSans-6f" transform="translate(348.962891 0)"/>
     <use xlink:href="#DejaVuSans-73" transform="translate(410.144531 0)"/>
     <use xlink:href="#DejaVuSans-74" transform="translate(462.244141 0)"/>
     <use xlink:href="#DejaVuSans-61" transform="translate(501.453125 0)"/>
     <use xlink:href="#DejaVuSans-74" transform="translate(562.732422 0)"/>
     <use xlink:href="#DejaVuSans-69" transform="translate(601.941406 0)"/>
     <use xlink:href="#DejaVuSans-63" transform="translate(629.724609 0)"/>
     <use xlink:href="#DejaVuSans-20" transform="translate(684.705078 0)"/>
     <use xlink:href="#DejaVuSans-45" transform="translate(716.492188 0)"/>
     <use xlink:href="#DejaVuSans-49" transform="translate(779.675781 0)"/>
     <use xlink:href="#DejaVuSans-53" transform="translate(809.167969 0)"/>
     <use xlink:href="#DejaVuSans-20" transform="translate(872.644531 0)"/>
     <use xlink:href="#DejaVuSans-2d" transform="translate(904.431641 0)"/>
     <use xlink:href="#DejaVuSans-20" transform="translate(940.515625 0)"/>
     <use xlink:href="#DejaVuSans-4e" transform="translate(972.302734 0)"/>
     <use xlink:href="#DejaVuSans-79" transform="translate(1047.107422 0)"/>
     <use xlink:href="#DejaVuSans-71" transform="translate(1106.287109 0)"/>
     <use xlink:href="#DejaVuSans-75" transform="translate(1169.763672 0)"/>
     <use xlink:href="#DejaVuSans-69" transform="translate(1233.142578 0)"/>
     <use xlink:href="#DejaVuSans-73" transform="translate(1260.925781 0)"/>
     <use xlink:href="#DejaVuSans-74" transform="translate(1313.025391 0)"/>
    </g>
   </g>
  </g>
 </g>
 <defs>
  <clipPath id="p29ad74a359">
   <rect x="71.248438" y="22.318125" width="334.8" height="207.714452"/>
  </clipPath>
 </defs>
</svg>
